#!OML:ASF H:\MichaelJackson\Top Level 1\Subject 1\Session 1\male.ASF
:FULLY-SPECIFIED
:DEGREES
909
root 3.4813 12.9184 30.3088 17.8462 35.4271 -7.94167
lowerback 20.4886 3.93773 -7.71519
upperback 9.84962 3.84861 -11.3115
thorax -0.231014 2.17637 -8.8002
lowerneck 0.428479 -8.70125 -6.47187
upperneck 0.589004 -11.6523 4.90333
head 0.823578 -5.83618 2.5123
rclavicle -3.81667e-014 1.36764e-013
rhumerus -46.5218 43.9553 -61.3733
rradius 119.718
rwrist -12.1943
rhand -31.8528 -34.4122
rfingers 7.12502
rthumb -5.1066 -424.331
lclavicle -3.81667e-014 1.36764e-013
lhumerus -26.2623 20.2606 69.7332
lradius 45.8512
lwrist 16.6718
lhand 6.87616 15.8687
lfingers 7.12502
lthumb 32.1578 43.0429
rfemur -33.5218 -21.0358 56.947
rtibia 72.7373
rfoot 13.5314 41.5357
rtoes 64.1432
lfemur -82.6835 -2.07937 -37.283
ltibia 85.2865
lfoot -28.9254 13.3708
ltoes 43.8283
910
root 3.49503 12.9685 30.4128 18.1079 34.7909 -7.88861
lowerback 20.1679 3.86471 -7.87475
upperback 9.57371 3.71764 -11.458
thorax -0.386162 2.10164 -8.83257
lowerneck 0.383772 -8.74556 -6.53371
upperneck 0.41645 -11.7092 4.9821
head 0.789079 -5.86422 2.54887
rclavicle -1.20861e-013 4.92986e-014
rhumerus -45.9237 43.8545 -60.9001
rradius 120.02
rwrist -11.6924
rhand -30.827 -33.1383
rfingers 7.12502
rthumb -4.11605 -423.078
lclavicle -1.20861e-013 4.92986e-014
lhumerus -26.2913 20.4415 69.2441
lradius 45.4385
lwrist 15.6803
lhand 5.86861 15.3255
lfingers 7.12502
lthumb 31.1981 42.689
rfemur -32.5626 -21.1819 56.4291
rtibia 71.6795
rfoot 15.0166 41.795
rtoes 64.0189
lfemur -82.5842 -1.91882 -36.6229
ltibia 85.3293
lfoot -29.2861 13.4945
ltoes 43.7775
911
root 3.50791 13.0245 30.5162 18.3697 34.2376 -7.82747
lowerback 19.8817 3.78908 -8.04564
upperback 9.31148 3.58019 -11.5538
thorax -0.548172 2.02224 -8.80136
lowerneck 0.372597 -8.78467 -6.59945
upperneck 0.125622 -11.7602 5.10581
head 0.714167 -5.88963 2.60583
rclavicle 2.22639e-014 -1.59028e-015
rhumerus -45.4358 43.7177 -60.4198
rradius 120.332
rwrist -11.1371
rhand -29.8247 -31.8283
rfingers 7.12502
rthumb -3.14813 -421.785
lclavicle 2.22639e-014 -1.59028e-015
lhumerus -26.3164 20.6224 68.7725
lradius 45.0432
lwrist 14.6724
lhand 4.83075 14.699
lfingers 7.12502
lthumb 30.2085 42.2483
rfemur -31.7679 -21.3376 55.9104
rtibia 70.7426
rfoot 16.6172 41.9433
rtoes 63.7169
lfemur -82.4062 -1.76355 -36.0173
ltibia 85.2741
lfoot -29.6062 13.5668
ltoes 43.7449
912
root 3.52077 13.0866 30.6186 18.6135 33.7419 -7.77687
lowerback 19.6292 3.72034 -8.19488
upperback 9.0627 3.45375 -11.6075
thorax -0.712561 1.94841 -8.73886
lowerneck 0.407454 -8.8189 -6.65896
upperneck -0.270212 -11.8061 5.2693
head 0.599984 -5.91297 2.68038
rclavicle -9.54166e-015 1.27222e-014
rhumerus -45.0725 43.5517 -59.9671
rradius 120.634
rwrist -10.5518
rhand -28.9882 -30.5749
rfingers 7.12502
rthumb -2.34028 -420.542
lclavicle -9.54166e-015 1.27222e-014
lhumerus -26.3212 20.7705 68.3207
lradius 44.6576
lwrist 13.6836
lhand 3.83922 14.0259
lfingers 7.12502
lthumb 29.2622 41.7443
rfemur -31.1415 -21.5544 55.4034
rtibia 69.964
rfoot 18.2672 41.9273
rtoes 63.1871
lfemur -82.1422 -1.58436 -35.4753
ltibia 85.1171
lfoot -29.8988 13.6318
ltoes 43.6969
913
root 3.53399 13.1547 30.7194 18.8261 33.2914 -7.74719
lowerback 19.4089 3.65828 -8.30855
upperback 8.82682 3.34019 -11.6254
thorax -0.878043 1.88165 -8.6605
lowerneck 0.471351 -8.84501 -6.69384
upperneck -0.722752 -11.8415 5.45179
head 0.461863 -5.93157 2.76092
rclavicle -9.22361e-014 -2.70347e-014
rhumerus -44.8157 43.3747 -59.5758
rradius 120.895
rwrist -9.97127
rhand -28.433 -29.4292
rfingers 7.12502
rthumb -1.80412 -419.401
lclavicle -9.22361e-014 -2.70347e-014
lhumerus -26.3059 20.871 67.8773
lradius 44.2788
lwrist 12.7533
lhand 2.93886 13.3335
lfingers 7.12502
lthumb 28.4021 41.1985
rfemur -30.6918 -21.8822 54.9176
rtibia 69.3825
rfoot 19.9085 41.706
rtoes 62.3587
lfemur -81.7897 -1.37146 -34.9955
ltibia 84.8624
lfoot -30.1656 13.7317
ltoes 43.5891
914
root 3.54836 13.228 30.8178 19.002 32.8649 -7.74298
lowerback 19.211 3.60376 -8.38342
upperback 8.60041 3.24172 -11.6086
thorax -1.04311 1.82287 -8.56922
lowerneck 0.532658 -8.85959 -6.72441
upperneck -1.16069 -11.8603 5.63963
head 0.32788 -5.94223 2.84305
rclavicle -1.90833e-014 -1.86062e-013
rhumerus -44.6243 43.2141 -59.2427
rradius 121.083
rwrist -9.44734
rhand -28.2291 -28.432
rfingers 7.12502
rthumb -1.60721 -418.406
lclavicle -1.90833e-014 -1.86062e-013
lhumerus -26.2588 20.986 67.4531
lradius 43.882
lwrist 11.8641
lhand 2.1435 12.6551
lfingers 7.12502
lthumb 27.6418 40.6444
rfemur -30.4271 -22.3474 54.45
rtibia 69.0469
rfoot 21.3981 41.2498
rtoes 61.1263
lfemur -81.3554 -1.12195 -34.5686
ltibia 84.5207
lfoot -30.413 13.8782
ltoes 43.4188
915
root 3.56411 13.3052 30.9133 19.1377 32.4529 -7.77255
lowerback 19.0247 3.55105 -8.42444
upperback 8.37934 3.15092 -11.5581
thorax -1.20777 1.76802 -8.46082
lowerneck 0.564283 -8.85992 -6.74251
upperneck -1.53391 -11.858 5.80447
head 0.215778 -5.94221 2.91312
rclavicle 3.18055e-014 -4.13472e-014
rhumerus -44.4556 43.083 -58.9847
rradius 121.163
rwrist -9.0129
rhand -28.3835 -27.5848
rfingers 7.12502
rthumb -1.75633 -417.557
lclavicle 3.18055e-014 -4.13472e-014
lhumerus -26.2124 21.1069 67.0268
lradius 43.4962
lwrist 11.0749
lhand 1.48768 11.9897
lfingers 7.12502
lthumb 27.0145 40.0778
rfemur -30.362 -22.9547 54.0088
rtibia 69.0085
rfoot 22.604 40.547
rtoes 59.3619
lfemur -80.8568 -0.841181 -34.1713
ltibia 84.1084
lfoot -30.6388 14.0629
ltoes 43.1971
916
root 3.58185 13.386 31.0056 19.2102 32.0353 -7.85222
lowerback 18.8515 3.50352 -8.43109
upperback 8.1621 3.07149 -11.469
thorax -1.37458 1.71855 -8.33114
lowerneck 0.544528 -8.84713 -6.76016
upperneck -1.80522 -11.8359 5.93451
head 0.141168 -5.93163 2.96662
rclavicle -9.54166e-015 -1.36764e-013
rhumerus -44.2699 42.9821 -58.7848
rradius 121.115
rwrist -8.70521
rhand -28.8577 -26.8612
rfingers 7.12502
rthumb -2.2143 -416.829
lclavicle -9.54166e-015 -1.36764e-013
lhumerus -26.1803 21.2924 66.6041
lradius 43.1285
lwrist 10.3638
lhand 0.882171 11.3783
lfingers 7.12502
lthumb 26.4351 39.5549
rfemur -30.4892 -23.6907 53.5854
rtibia 69.3268
rfoot 23.3434 39.6174
rtoes 56.8936
lfemur -80.2925 -0.519595 -33.7729
ltibia 83.6411
lfoot -30.8422 14.2683
ltoes 42.9394
